<svg id="svg" version="1.1" xmlns="http://www.w3.org/2000/svg" xmlns:xlink="http://www.w3.org/1999/xlink" width="400" height="400" viewBox="0, 0, 400,400"><g id="svgg"><path id="path0" d="M195.100 0.936 C 83.438 3.276,-5.307 98.793,0.581 210.300 C 6.727 326.673,109.944 412.889,225.400 398.088 C 334.755 384.069,412.346 282.700,397.382 173.400 C 385.000 82.964,312.702 12.353,222.000 2.111 C 215.754 1.406,202.665 0.698,198.600 0.846 C 197.995 0.868,196.420 0.909,195.100 0.936 M213.800 25.683 C 311.413 34.186,383.195 119.540,374.184 216.392 C 364.912 316.039,273.805 387.915,174.800 373.689 C 94.833 362.199,32.596 296.632,25.310 216.200 C 16.405 117.904,90.635 31.598,189.400 25.416 C 193.918 25.134,209.440 25.303,213.800 25.683 " stroke="none" fill="#04ac8c" fill-rule="evenodd"></path><path id="path1" d="M197.145 123.756 C 197.010 124.072,187.045 147.650,175.000 176.149 C 162.955 204.649,153.038 227.907,152.961 227.834 C 152.885 227.760,142.123 204.255,129.046 175.600 L 105.269 123.500 84.527 123.449 C 64.807 123.401,63.794 123.415,63.965 123.749 C 64.064 123.942,80.774 160.483,101.099 204.950 L 138.052 285.800 153.199 285.800 L 168.345 285.800 168.858 284.650 C 169.140 284.018,172.573 276.088,176.488 267.028 C 180.402 257.969,183.678 250.425,183.767 250.265 C 183.887 250.052,184.216 250.440,184.995 251.711 C 202.065 279.545,236.986 293.845,274.788 288.480 C 293.181 285.869,308.708 278.484,320.980 266.510 C 324.286 263.284,329.038 258.020,328.956 257.674 C 328.879 257.354,305.750 234.800,305.500 234.802 C 305.390 234.802,304.040 236.207,302.500 237.922 C 290.815 250.939,276.900 256.920,258.400 256.878 C 233.069 256.820,215.176 243.660,210.232 221.450 L 210.043 220.600 272.700 220.600 L 335.357 220.600 335.505 217.050 C 337.541 168.312,313.960 133.718,273.100 125.499 C 262.499 123.367,262.047 123.345,227.345 123.256 L 197.389 123.180 197.145 123.756 M262.500 156.301 C 281.376 158.770,293.580 169.963,297.878 188.750 L 298.165 190.000 254.398 190.000 L 210.631 190.000 211.039 188.550 C 217.447 165.796,237.762 153.065,262.500 156.301 " stroke="none" fill="#2c3484" fill-rule="evenodd"></path><path id="path2" d="" stroke="none" fill="#18b088" fill-rule="evenodd"></path><path id="path3" d="" stroke="none" fill="#18b088" fill-rule="evenodd"></path><path id="path4" d="" stroke="none" fill="#18b088" fill-rule="evenodd"></path></g></svg>
